<mxfile host="app.diagrams.net" modified="2023-12-13T12:23:40.511Z" agent="Mozilla/5.0 (Macintosh; Intel Mac OS X 10_15_7) AppleWebKit/537.36 (KHTML, like Gecko) Chrome/120.0.0.0 Safari/537.36" version="22.1.7" etag="fIzIuCyA4iszZ67JCW4A" type="github">
  <diagram name="第 1 页" id="TSXyZXu4kWinHq2TDxlp">
    <mxGraphModel>
      <root>
        <mxCell id="0" />
        <mxCell id="1" parent="0" />
      </root>
    </mxGraphModel>
  </diagram>
</mxfile>
